<?xml version="1.0" encoding="utf-8"?>
<!-- Generator: Adobe Illustrator 25.2.1, SVG Export Plug-In . SVG Version: 6.00 Build 0)  -->
<svg version="1.1" id="Layer_1" xmlns="http://www.w3.org/2000/svg" xmlns:xlink="http://www.w3.org/1999/xlink" x="0px" y="0px"
	 viewBox="0 0 95 95" style="enable-background:new 0 0 95 95;" xml:space="preserve">
<style type="text/css">
	.st0{fill:none;}
	.st1{fill:#FFFFFF;}
</style>
<circle class="st0" cx="47.5" cy="47.5" r="47.5"/>
<g>
	<path class="st1" d="M29.5,49.7c10.7-0.6,17.8-6.7,23.4-15.3c2.9-4.5,4.6-9.4,4.4-14.8C57,12.5,51.6,8,44.8,9
		c-12.3,1.8-25,15.8-24.7,28.5c0.2,5.9-1.7,10.1-5.3,14.1c-3.8,4.3-7.7,8.7-11.6,13c1.2,2.8,2.6,5.4,4.2,7.9
		c5.7-6.8,11.3-13.7,17.1-20.4C25.7,50.8,27.8,49.8,29.5,49.7z"/>
	<path class="st1" d="M47.8,75.8c2.3-2.4,5-3.5,8.3-3.1c5.7,0.8,10-1.3,13.4-5.9c5.5-7.6,11.3-15.1,17-22.6c0.3-0.4,0.7-0.8,0.9-1.2
		c0.3-0.7,0.3-1.6,0.5-2.3c-0.7,0.3-1.5,0.5-1.9,1c-3.8,4.2-7.5,8.4-11.2,12.6c-2.9,3.3-5.9,6.6-8.8,9.9c-0.3-0.2-0.5-0.4-0.8-0.6
		c6.6-8.4,13.3-16.8,19.9-25.1c-0.2-0.2-0.5-0.4-0.7-0.6c-7.1,8-14.2,16-21.3,23.9c-0.2-0.2-0.5-0.4-0.7-0.7
		c6.6-8.4,13.3-16.8,19.9-25.2c-0.2-0.2-0.5-0.4-0.7-0.6c-7.1,8-14.2,16-21.4,23.9c-0.2-0.2-0.5-0.4-0.7-0.6
		c6.6-8.4,13.3-16.8,19.9-25.2c-0.2-0.2-0.5-0.4-0.7-0.6c-7.1,8-14.3,16-21.4,24c-0.2-0.2-0.5-0.4-0.7-0.6
		c6.7-8.4,13.3-16.8,20-25.3c-0.2-0.2-0.5-0.4-0.7-0.6c-7.1,8-14.3,16-21.4,24c-0.2-0.2-0.5-0.4-0.7-0.6c6.7-8.4,13.3-16.8,20-25.2
		c-0.2-0.2-0.5-0.4-0.7-0.6c-7.1,8-14.2,16-21.4,23.9c-0.2-0.2-0.5-0.4-0.7-0.6c6.6-8.4,13.3-16.7,19.9-25.1
		c-0.1-0.3-0.1-0.5-0.2-0.8c-0.6,0.1-1.5-0.1-1.9,0.3c-7.6,8-15.3,16-22.8,24.2c-2.9,3.2-3.5,7.3-2.2,11.4c1.2,3.7,0.6,7.1-1.8,10
		C36.4,77.3,31,83.5,25.5,89.7c2.5,1.4,5.2,2.7,8,3.6c3.9-5,7.8-9.9,11.7-14.7C46,77.6,47,76.8,47.8,75.8z"/>
</g>
</svg>
